<svg xmlns="http://www.w3.org/2000/svg" version="1.1" xmlns:xlink="http://www.w3.org/1999/xlink" xmlns:svgjs="http://svgjs.dev/svgjs" width="2000" height="429" viewBox="0 0 2000 429"><g transform="matrix(1,0,0,1,-1.2121212121212466,0.54929740283211)"><svg viewBox="0 0 396 85" data-background-color="#ffffff" preserveAspectRatio="xMidYMid meet" height="429" width="2000" xmlns="http://www.w3.org/2000/svg" xmlns:xlink="http://www.w3.org/1999/xlink"><g id="tight-bounds" transform="matrix(1,0,0,1,0.2400000000000091,-0.10883514974528907)"><svg viewBox="0 0 395.52 85.2176702994906" height="85.2176702994906" width="395.52"><g><svg viewBox="0 0 584.8148968686961 126.00263720567139" height="85.2176702994906" width="395.52"><g></g><g></g><g transform="matrix(1,0,0,1,189.2948968686962,21.931894082402003)"><svg viewBox="0 0 395.52 82.13884904086738" height="82.13884904086738" width="395.52"><g id="textblocktransform"><svg viewBox="0 0 395.52 82.13884904086738" height="82.13884904086738" width="395.52" id="textblock"><g><svg viewBox="0 0 395.52 82.13884904086738" height="82.13884904086738" width="395.52"><g transform="matrix(1,0,0,1,0,0)"><svg width="395.52" viewBox="3.66 -35.86 175.63 36.47" height="82.13884904086738" data-palette-color="url(#8358f3a5-f899-431d-9562-d24225a978f5)"><g class="wordmark-text-0" data-fill-palette-color="primary" id="text-0"></g></svg></g></svg></g></svg></g></svg></g><g><svg viewBox="0 0 126.00263720567139 126.00263720567139" height="126.00263720567139" width="126.00263720567139"><g><svg xmlns="http://www.w3.org/2000/svg" xmlns:xlink="http://www.w3.org/1999/xlink" version="1.0" x="0" y="0" viewBox="20 20 60 60" enable-background="new 0 0 100 100" xml:space="preserve" height="126.00263720567139" width="126.00263720567139" class="icon-icon-0" data-fill-palette-color="accent" id="icon-0"></svg></g></svg></g></svg></g><defs></defs><mask id="f691fbab-c7db-47be-84bd-6021f3a9c75d"><g id="SvgjsG1033"><svg viewBox="0 0 395.52 85.2176702994906" height="85.2176702994906" width="395.52"><g><svg viewBox="0 0 584.8148968686961 126.00263720567139" height="85.2176702994906" width="395.52"><g><rect width="7.407366173797631" height="82.54954328607171" x="145.3936481318432" y="21.72654695979984" fill="white" opacity="1" stroke-width="0" stroke="transparent" fill-opacity="1" class="rect-yte-0" rx="1%" id="SvgjsRect1032" data-palette-color="url(#8358f3a5-f899-431d-9562-d24225a978f5)"></rect></g><g><rect width="7.407366173797631" height="82.54954328607171" x="162.49651976872676" y="21.72654695979984" fill="white" opacity="1" stroke-width="0" stroke="transparent" fill-opacity="1" class="rect-yte-1" rx="1%" id="SvgjsRect1031" data-palette-color="url(#8358f3a5-f899-431d-9562-d24225a978f5)"></rect></g><g transform="matrix(1,0,0,1,189.2948968686962,21.931894082402003)"><svg viewBox="0 0 395.52 82.13884904086738" height="82.13884904086738" width="395.52"><g id="SvgjsG1030"><svg viewBox="0 0 395.52 82.13884904086738" height="82.13884904086738" width="395.52" id="SvgjsSvg1029"><g><svg viewBox="0 0 395.52 82.13884904086738" height="82.13884904086738" width="395.52"><g transform="matrix(1,0,0,1,0,0)"><svg width="395.52" viewBox="3.66 -35.86 175.63 36.47" height="82.13884904086738" data-palette-color="url(#8358f3a5-f899-431d-9562-d24225a978f5)"><g class="wordmark-text-0" data-fill-palette-color="primary" id="SvgjsG1028"><path d="M23.54-14.01L23.73-14.01Q24.07-15.33 24.48-16.61 24.88-17.9 25.46-19.48L25.46-19.48Q25.98-20.9 26.71-22.74 27.44-24.58 28.26-26.49 29.08-28.39 29.86-30.03 30.64-31.67 31.27-32.64L31.27-32.64Q32.06-33.84 32.97-34.42 33.89-35.01 35.67-35.01L35.67-35.01 38.87-35.01Q40.14-35.01 41-34.63 41.87-34.25 42.24-32.84L42.24-32.84Q42.5-31.79 42.75-29.76 42.99-27.73 43.16-24.15 43.33-20.56 43.43-14.93 43.53-9.3 43.53-1.03L43.53-1.03Q43.53-0.59 43.24-0.29 42.94 0 42.53 0L42.53 0 36.96 0Q36.55 0 36.25-0.29 35.96-0.59 35.96-1.05L35.96-1.05Q35.96-7.5 35.96-11.99 35.96-16.48 35.94-19.43 35.91-22.39 35.88-24.13 35.84-25.88 35.77-26.83L35.77-26.83 35.62-26.83Q34.33-23.85 32.86-20.2 31.4-16.55 30-12.68 28.61-8.81 27.51-5.13L27.51-5.13Q27.2-4.03 26.72-3.6 26.25-3.17 24.56-3.17L24.56-3.17 21.75-3.17Q20.31-3.17 19.84-3.54 19.36-3.91 19.02-5.13L19.02-5.13Q18.21-7.91 17.24-11.01 16.26-14.11 15.22-17.1 14.18-20.09 13.22-22.62 12.26-25.15 11.5-26.83L11.5-26.83 11.35-26.83Q11.16-23.95 11.01-19.82 10.86-15.7 10.78-10.86 10.69-6.03 10.67-1L10.67-1Q10.67-0.56 10.38-0.28 10.08 0 9.67 0L9.67 0 4.66 0Q4.25 0 3.96-0.29 3.66-0.59 3.66-1.05L3.66-1.05Q3.69-14.06 4.19-21.83 4.69-29.59 5.27-32.23L5.27-32.23Q5.66-33.96 6.65-34.48 7.64-35.01 8.91-35.01L8.91-35.01 12.87-35.01Q14.21-35.01 14.83-34.53 15.45-34.06 16.36-32.69L16.36-32.69Q16.89-31.88 17.64-30.27 18.38-28.66 19.19-26.7 20-24.73 20.72-22.81 21.44-20.9 21.9-19.48L21.9-19.48Q22.39-18.04 22.8-16.69 23.22-15.33 23.54-14.01L23.54-14.01ZM63.84-13.7L63.84-13.7Q60.1-11.65 58.58-9.08 57.05-6.52 57.05-2.64L57.05-2.64 57.05-1.29Q57.05-0.56 56.76-0.28 56.47 0 55.76 0L55.76 0 50.68 0Q50 0 49.69-0.28 49.39-0.56 49.39-1.29L49.39-1.29 49.39-2.64Q49.39-6.27 50.19-8.8 51-11.33 52.87-13.28 54.73-15.23 57.96-17.11L57.96-17.11Q54.29-19.21 52.21-22.18 50.12-25.15 50.12-28.74L50.12-28.74 50.12-31.1Q50.12-31.81 50.36-32.18L50.36-32.18Q51.46-33.79 53.44-35.57L53.44-35.57Q53.81-35.86 54.1-35.86L54.1-35.86Q54.39-35.86 54.71-35.57L54.71-35.57Q55.78-34.64 56.52-33.8 57.25-32.96 57.79-32.18L57.79-32.18Q58.03-31.79 58.03-31.1L58.03-31.1 58.03-28.74Q58.03-26.73 59.65-24.51 61.28-22.29 64.11-20.83L64.11-20.83Q66.92-22.27 68.14-24.29 69.36-26.32 69.36-28.74L69.36-28.74 69.36-31.1Q69.36-31.81 69.6-32.18L69.6-32.18Q70.65-33.76 72.58-35.57L72.58-35.57Q72.95-35.86 73.19-35.86L73.19-35.86Q73.48-35.86 73.8-35.57L73.8-35.57Q74.83-34.64 75.55-33.8 76.27-32.96 76.78-32.18L76.78-32.18Q77.02-31.79 77.02-31.1L77.02-31.1 77.02-28.74Q77.02-24.71 75.06-21.95 73.09-19.19 70.04-17.46L70.04-17.46Q72.92-15.75 74.73-13.78 76.54-11.82 77.39-9.14 78.24-6.47 78.24-2.64L78.24-2.64 78.24-1.29Q78.24-0.56 77.94-0.28 77.63 0 76.9 0L76.9 0 71.7 0Q70.97 0 70.66-0.28 70.36-0.56 70.36-1.29L70.36-1.29 70.36-2.64Q70.36-5.25 69.88-7.18 69.41-9.11 68-10.66 66.6-12.21 63.84-13.7ZM99.48-28.59L99.48-1.29Q99.48-0.56 99.18-0.28 98.87 0 98.14 0L98.14 0 92.94 0Q92.21 0 91.9-0.28 91.6-0.56 91.6-1.29L91.6-1.29 91.6-28.59 84.32-28.59Q83.74-28.59 83.44-28.78L83.44-28.78Q82.81-29.22 82.14-29.83 81.46-30.44 80.68-31.3L80.68-31.3Q80.44-31.62 80.44-31.81L80.44-31.81Q80.44-32.03 80.68-32.3L80.68-32.3Q81.46-33.15 82.14-33.76 82.81-34.38 83.44-34.81L83.44-34.81Q83.78-35.01 84.32-35.01L84.32-35.01 106.78-35.01Q107.37-35.01 107.66-34.81L107.66-34.81Q108.3-34.38 108.98-33.76 109.66-33.15 110.42-32.3L110.42-32.3Q110.66-31.98 110.66-31.79L110.66-31.79Q110.66-31.57 110.42-31.3L110.42-31.3Q109.66-30.44 108.98-29.83 108.3-29.22 107.66-28.78L107.66-28.78Q107.32-28.59 106.78-28.59L106.78-28.59 99.48-28.59ZM122.45-25.93L122.45-1.29Q122.45-0.56 122.15-0.28 121.84 0 121.11 0L121.11 0 115.91 0Q115.18 0 114.87-0.28 114.57-0.56 114.57-1.29L114.57-1.29 114.57-28.47Q114.57-30.91 115.02-32.34 115.47-33.76 116.78-34.39 118.08-35.01 120.6-35.01L120.6-35.01 127.07-35.01Q139.81-35.01 139.81-25.22L139.81-25.22Q139.81-22.24 138.81-20.34 137.81-18.43 136.32-17.37 134.83-16.31 133.39-15.77L133.39-15.77 133.39-15.65Q135.03-14.58 136.5-12.83 137.98-11.08 139.18-9.05 140.37-7.01 141.2-5.02 142.03-3.03 142.35-1.46L142.35-1.46Q142.5-0.73 142.36-0.37 142.23 0 141.52 0L141.52 0 135.88 0Q135.25 0 134.77-0.27 134.29-0.54 133.9-1.51L133.9-1.51Q132.05-6.18 129.63-9.12 127.21-12.06 124.97-13.84L124.97-13.84Q123.53-14.99 123.53-15.48L123.53-15.48Q123.53-15.87 123.99-16.55L123.99-16.55Q124.28-16.97 124.85-17.55 125.41-18.14 125.82-18.43L125.82-18.43Q126.24-18.73 126.49-18.8 126.75-18.87 127.29-18.87L127.29-18.87Q129.09-18.87 130.3-20.12 131.51-21.36 131.51-24.05L131.51-24.05Q131.51-26.59 130.23-27.77 128.95-28.96 126.7-28.96L126.7-28.96 125.24-28.96Q123.63-28.96 123.04-28.27 122.45-27.59 122.45-25.93L122.45-25.93ZM162.2 0.61L162.2 0.61Q157.12 0.61 153.36-1.34 149.6-3.3 147.54-7.23 145.47-11.16 145.47-17.04L145.47-17.04Q145.47-26.39 150.04-30.99 154.6-35.6 162.76-35.6L162.76-35.6Q170.4-35.6 174.84-31.09 179.29-26.59 179.29-17.75L179.29-17.75Q179.29-11.5 177.21-7.43 175.14-3.37 171.3-1.38 167.47 0.61 162.2 0.61ZM162.34-5.98L162.34-5.98Q166.74-5.98 168.86-9.13 170.99-12.28 170.99-17.31L170.99-17.31Q170.99-23.14 168.98-26.07 166.98-29 162.54-29L162.54-29Q153.77-29 153.77-17.46L153.77-17.46Q153.77-12.3 155.89-9.14 158-5.98 162.34-5.98Z" fill="white"></path></g></svg></g></svg></g></svg></g></svg></g><g><svg viewBox="0 0 126.00263720567139 126.00263720567139" height="126.00263720567139" width="126.00263720567139"><g><svg xmlns="http://www.w3.org/2000/svg" xmlns:xlink="http://www.w3.org/1999/xlink" version="1.0" x="0" y="0" viewBox="20 20 60 60" enable-background="new 0 0 100 100" xml:space="preserve" height="126.00263720567139" width="126.00263720567139" class="icon-icon-0" data-fill-palette-color="accent" id="SvgjsSvg1027"><path d="M20 26.667A6.67 6.67 0 0 1 26.667 33.334V63.334C26.667 72.539 34.128 80 43.333 80S60 72.539 60 63.334V40A3.33 3.33 0 0 1 63.333 36.667 3.33 3.33 0 0 1 66.667 40V56.666C66.667 64.023 72.637 70 80 70V63.334A6.67 6.67 0 0 1 73.333 56.666V40C73.333 34.476 68.854 30 63.333 30S53.333 34.476 53.333 40V63.334C53.333 68.857 48.854 73.334 43.333 73.334S33.333 68.857 33.333 63.334V33.334C33.333 25.973 27.363 20 20 20z" fill="black"></path></svg></g></svg></g></svg></g><defs><mask></mask></defs></svg><rect width="395.52" height="85.2176702994906" fill="black" stroke="none" visibility="hidden"></rect></g></mask><linearGradient x1="0.054" x2="0.941" y1="0.5" y2="0.5" id="8358f3a5-f899-431d-9562-d24225a978f5"><stop stop-color="#0f3054" offset="0"></stop><stop stop-color="#3b8dcb" offset="0.498"></stop><stop stop-color="#0f3054" offset="1"></stop></linearGradient><rect width="395.52" height="85.2176702994906" fill="url(#8358f3a5-f899-431d-9562-d24225a978f5)" mask="url(#f691fbab-c7db-47be-84bd-6021f3a9c75d)" data-fill-palette-color="primary"></rect><mask id="861d71bf-cb2e-440e-8bbc-b765a4ddea86"><g id="SvgjsG1045"><svg viewBox="0 0 395.52 85.2176702994906" height="85.2176702994906" width="395.52"><g><svg viewBox="0 0 584.8148968686961 126.00263720567139" height="85.2176702994906" width="395.52"><g></g><g></g><g transform="matrix(1,0,0,1,189.2948968686962,21.931894082402003)"><svg viewBox="0 0 395.52 82.13884904086738" height="82.13884904086738" width="395.52"><g id="SvgjsG1044"><svg viewBox="0 0 395.52 82.13884904086738" height="82.13884904086738" width="395.52" id="SvgjsSvg1043"><g><svg viewBox="0 0 395.52 82.13884904086738" height="82.13884904086738" width="395.52"><g transform="matrix(1,0,0,1,0,0)"><svg width="395.52" viewBox="3.66 -35.86 175.63 36.47" height="82.13884904086738" data-palette-color="url(#8358f3a5-f899-431d-9562-d24225a978f5)"><g class="wordmark-text-0" data-fill-palette-color="primary" id="SvgjsG1042"></g></svg></g></svg></g></svg></g></svg></g><g><svg viewBox="0 0 126.00263720567139 126.00263720567139" height="126.00263720567139" width="126.00263720567139"><g><svg xmlns="http://www.w3.org/2000/svg" xmlns:xlink="http://www.w3.org/1999/xlink" version="1.0" x="0" y="0" viewBox="20 20 60 60" enable-background="new 0 0 100 100" xml:space="preserve" height="126.00263720567139" width="126.00263720567139" class="icon-icon-0" data-fill-palette-color="accent" id="SvgjsSvg1041"><path d="M20 26.667A6.67 6.67 0 0 1 26.667 33.334V63.334C26.667 72.539 34.128 80 43.333 80S60 72.539 60 63.334V40A3.33 3.33 0 0 1 63.333 36.667 3.33 3.33 0 0 1 66.667 40V56.666C66.667 64.023 72.637 70 80 70V63.334A6.67 6.67 0 0 1 73.333 56.666V40C73.333 34.476 68.854 30 63.333 30S53.333 34.476 53.333 40V63.334C53.333 68.857 48.854 73.334 43.333 73.334S33.333 68.857 33.333 63.334V33.334C33.333 25.973 27.363 20 20 20z" fill="white"></path></svg></g></svg></g></svg></g><defs><mask></mask></defs><mask><g id="SvgjsG1040"><svg viewBox="0 0 395.52 85.2176702994906" height="85.2176702994906" width="395.52"><g><svg viewBox="0 0 584.8148968686961 126.00263720567139" height="85.2176702994906" width="395.52"><g><rect width="7.407366173797631" height="82.54954328607171" x="145.3936481318432" y="21.72654695979984" fill="black" opacity="1" stroke-width="0" stroke="transparent" fill-opacity="1" class="rect-yte-0" rx="1%" id="SvgjsRect1039" data-palette-color="url(#8358f3a5-f899-431d-9562-d24225a978f5)"></rect></g><g><rect width="7.407366173797631" height="82.54954328607171" x="162.49651976872676" y="21.72654695979984" fill="black" opacity="1" stroke-width="0" stroke="transparent" fill-opacity="1" class="rect-yte-1" rx="1%" id="SvgjsRect1038" data-palette-color="url(#8358f3a5-f899-431d-9562-d24225a978f5)"></rect></g><g transform="matrix(1,0,0,1,189.2948968686962,21.931894082402003)"><svg viewBox="0 0 395.52 82.13884904086738" height="82.13884904086738" width="395.52"><g id="SvgjsG1037"><svg viewBox="0 0 395.52 82.13884904086738" height="82.13884904086738" width="395.52" id="SvgjsSvg1036"><g><svg viewBox="0 0 395.52 82.13884904086738" height="82.13884904086738" width="395.52"><g transform="matrix(1,0,0,1,0,0)"><svg width="395.52" viewBox="3.66 -35.86 175.63 36.47" height="82.13884904086738" data-palette-color="url(#8358f3a5-f899-431d-9562-d24225a978f5)"><g class="wordmark-text-0" data-fill-palette-color="primary" id="SvgjsG1035"><path d="M23.54-14.01L23.73-14.01Q24.07-15.33 24.48-16.61 24.88-17.9 25.46-19.48L25.46-19.48Q25.98-20.9 26.71-22.74 27.44-24.58 28.26-26.49 29.08-28.39 29.86-30.03 30.64-31.67 31.27-32.64L31.27-32.64Q32.06-33.84 32.97-34.42 33.89-35.01 35.67-35.01L35.67-35.01 38.87-35.01Q40.14-35.01 41-34.63 41.87-34.25 42.24-32.84L42.24-32.84Q42.5-31.79 42.75-29.76 42.99-27.73 43.16-24.15 43.33-20.56 43.43-14.93 43.53-9.3 43.53-1.03L43.53-1.03Q43.53-0.59 43.24-0.29 42.94 0 42.53 0L42.53 0 36.96 0Q36.55 0 36.25-0.29 35.96-0.59 35.96-1.05L35.96-1.05Q35.96-7.5 35.96-11.99 35.96-16.48 35.94-19.43 35.91-22.39 35.88-24.13 35.84-25.88 35.77-26.83L35.77-26.83 35.62-26.83Q34.33-23.85 32.86-20.2 31.4-16.55 30-12.68 28.61-8.81 27.51-5.13L27.51-5.13Q27.2-4.03 26.72-3.6 26.25-3.17 24.56-3.17L24.56-3.17 21.75-3.17Q20.31-3.17 19.84-3.54 19.36-3.91 19.02-5.13L19.02-5.13Q18.21-7.91 17.24-11.01 16.26-14.11 15.22-17.1 14.18-20.09 13.22-22.62 12.26-25.15 11.5-26.83L11.5-26.83 11.35-26.83Q11.16-23.95 11.01-19.82 10.86-15.7 10.78-10.86 10.69-6.03 10.67-1L10.67-1Q10.67-0.56 10.38-0.28 10.08 0 9.67 0L9.67 0 4.66 0Q4.25 0 3.96-0.29 3.66-0.59 3.66-1.05L3.66-1.05Q3.69-14.06 4.19-21.83 4.69-29.59 5.27-32.23L5.27-32.23Q5.66-33.96 6.65-34.48 7.64-35.01 8.91-35.01L8.91-35.01 12.87-35.01Q14.21-35.01 14.83-34.53 15.45-34.06 16.36-32.69L16.36-32.69Q16.89-31.88 17.64-30.27 18.38-28.66 19.19-26.7 20-24.73 20.72-22.81 21.44-20.9 21.9-19.48L21.9-19.48Q22.39-18.04 22.8-16.69 23.22-15.33 23.54-14.01L23.54-14.01ZM63.84-13.7L63.84-13.7Q60.1-11.65 58.58-9.08 57.05-6.52 57.05-2.64L57.05-2.64 57.05-1.29Q57.05-0.56 56.76-0.28 56.47 0 55.76 0L55.76 0 50.68 0Q50 0 49.69-0.28 49.39-0.56 49.39-1.29L49.39-1.29 49.39-2.64Q49.39-6.27 50.19-8.8 51-11.33 52.87-13.28 54.73-15.23 57.96-17.11L57.96-17.11Q54.29-19.21 52.21-22.18 50.12-25.15 50.12-28.74L50.12-28.74 50.12-31.1Q50.12-31.81 50.36-32.18L50.36-32.18Q51.46-33.79 53.44-35.57L53.44-35.57Q53.81-35.86 54.1-35.86L54.1-35.86Q54.39-35.86 54.71-35.57L54.71-35.57Q55.78-34.64 56.52-33.8 57.25-32.96 57.79-32.18L57.79-32.18Q58.03-31.79 58.03-31.1L58.03-31.1 58.03-28.74Q58.03-26.73 59.65-24.51 61.28-22.29 64.11-20.83L64.11-20.83Q66.92-22.27 68.14-24.29 69.36-26.32 69.36-28.74L69.36-28.74 69.36-31.1Q69.36-31.81 69.6-32.18L69.6-32.18Q70.65-33.76 72.58-35.57L72.58-35.57Q72.95-35.86 73.19-35.86L73.19-35.86Q73.48-35.86 73.8-35.57L73.8-35.57Q74.83-34.64 75.55-33.8 76.27-32.96 76.78-32.18L76.78-32.18Q77.02-31.79 77.02-31.1L77.02-31.1 77.02-28.74Q77.02-24.71 75.06-21.95 73.09-19.19 70.04-17.46L70.04-17.46Q72.92-15.75 74.73-13.78 76.54-11.82 77.39-9.14 78.24-6.47 78.24-2.64L78.24-2.64 78.24-1.29Q78.24-0.56 77.94-0.28 77.63 0 76.9 0L76.9 0 71.7 0Q70.97 0 70.66-0.28 70.36-0.56 70.36-1.29L70.36-1.29 70.36-2.64Q70.36-5.25 69.88-7.18 69.41-9.11 68-10.66 66.6-12.21 63.84-13.7ZM99.48-28.59L99.48-1.29Q99.48-0.56 99.18-0.28 98.87 0 98.14 0L98.14 0 92.94 0Q92.21 0 91.9-0.28 91.6-0.56 91.6-1.29L91.6-1.29 91.6-28.59 84.32-28.59Q83.74-28.59 83.44-28.78L83.44-28.78Q82.81-29.22 82.14-29.83 81.46-30.44 80.68-31.3L80.68-31.3Q80.44-31.62 80.44-31.81L80.44-31.81Q80.44-32.03 80.68-32.3L80.68-32.3Q81.46-33.15 82.14-33.76 82.81-34.38 83.44-34.81L83.44-34.81Q83.78-35.01 84.32-35.01L84.32-35.01 106.78-35.01Q107.37-35.01 107.66-34.81L107.66-34.81Q108.3-34.38 108.98-33.76 109.66-33.15 110.42-32.3L110.42-32.3Q110.66-31.98 110.66-31.79L110.66-31.79Q110.66-31.57 110.42-31.3L110.42-31.3Q109.66-30.44 108.98-29.83 108.3-29.22 107.66-28.78L107.66-28.78Q107.32-28.59 106.78-28.59L106.78-28.59 99.48-28.59ZM122.45-25.93L122.45-1.29Q122.45-0.56 122.15-0.28 121.84 0 121.11 0L121.11 0 115.91 0Q115.18 0 114.87-0.28 114.57-0.56 114.57-1.29L114.57-1.29 114.57-28.47Q114.57-30.91 115.02-32.34 115.47-33.76 116.78-34.39 118.08-35.01 120.6-35.01L120.6-35.01 127.07-35.01Q139.81-35.01 139.81-25.22L139.81-25.22Q139.81-22.24 138.81-20.34 137.81-18.43 136.32-17.37 134.83-16.31 133.39-15.77L133.39-15.77 133.39-15.65Q135.03-14.58 136.5-12.83 137.98-11.08 139.18-9.05 140.37-7.01 141.2-5.02 142.03-3.03 142.35-1.46L142.35-1.46Q142.5-0.73 142.36-0.37 142.23 0 141.52 0L141.52 0 135.88 0Q135.25 0 134.77-0.27 134.29-0.54 133.9-1.51L133.9-1.51Q132.05-6.18 129.63-9.12 127.21-12.06 124.97-13.84L124.97-13.84Q123.53-14.99 123.53-15.48L123.53-15.48Q123.53-15.87 123.99-16.55L123.99-16.55Q124.28-16.97 124.85-17.55 125.41-18.14 125.82-18.43L125.82-18.43Q126.24-18.73 126.49-18.8 126.75-18.87 127.29-18.87L127.29-18.87Q129.09-18.87 130.3-20.12 131.51-21.36 131.51-24.05L131.51-24.05Q131.51-26.59 130.23-27.77 128.95-28.96 126.7-28.96L126.7-28.96 125.24-28.96Q123.63-28.96 123.04-28.27 122.45-27.59 122.45-25.93L122.45-25.93ZM162.2 0.61L162.2 0.61Q157.12 0.61 153.36-1.34 149.6-3.3 147.54-7.23 145.47-11.16 145.47-17.04L145.47-17.04Q145.47-26.39 150.04-30.99 154.6-35.6 162.76-35.6L162.76-35.6Q170.4-35.6 174.84-31.09 179.29-26.59 179.29-17.75L179.29-17.75Q179.29-11.5 177.21-7.43 175.14-3.37 171.3-1.38 167.47 0.61 162.2 0.61ZM162.34-5.98L162.34-5.98Q166.74-5.98 168.86-9.13 170.99-12.28 170.99-17.31L170.99-17.31Q170.99-23.14 168.98-26.07 166.98-29 162.54-29L162.54-29Q153.77-29 153.77-17.46L153.77-17.46Q153.77-12.3 155.89-9.14 158-5.98 162.34-5.98Z" fill="black"></path></g></svg></g></svg></g></svg></g></svg></g><g><svg viewBox="0 0 126.00263720567139 126.00263720567139" height="126.00263720567139" width="126.00263720567139"><g><svg xmlns="http://www.w3.org/2000/svg" xmlns:xlink="http://www.w3.org/1999/xlink" version="1.0" x="0" y="0" viewBox="20 20 60 60" enable-background="new 0 0 100 100" xml:space="preserve" height="126.00263720567139" width="126.00263720567139" class="icon-icon-0" data-fill-palette-color="accent" id="SvgjsSvg1034"><path d="M20 26.667A6.67 6.67 0 0 1 26.667 33.334V63.334C26.667 72.539 34.128 80 43.333 80S60 72.539 60 63.334V40A3.33 3.33 0 0 1 63.333 36.667 3.33 3.33 0 0 1 66.667 40V56.666C66.667 64.023 72.637 70 80 70V63.334A6.67 6.67 0 0 1 73.333 56.666V40C73.333 34.476 68.854 30 63.333 30S53.333 34.476 53.333 40V63.334C53.333 68.857 48.854 73.334 43.333 73.334S33.333 68.857 33.333 63.334V33.334C33.333 25.973 27.363 20 20 20z" fill="black"></path></svg></g></svg></g></svg></g><defs><mask></mask></defs></svg><rect width="395.52" height="85.2176702994906" fill="black" stroke="none" visibility="hidden"></rect></g></mask></svg><rect width="395.52" height="85.2176702994906" fill="black" stroke="none" visibility="hidden"></rect></g></mask><linearGradient x1="0.054" x2="0.941" y1="0.5" y2="0.5" id="0fb2a68f-bc82-495d-b04d-ed810f29da85"><stop stop-color="#0f3054" offset="0"></stop><stop stop-color="#3b8dcb" offset="0.498"></stop><stop stop-color="#0f3054" offset="1"></stop></linearGradient><rect width="395.52" height="85.2176702994906" fill="url(#0fb2a68f-bc82-495d-b04d-ed810f29da85)" mask="url(#861d71bf-cb2e-440e-8bbc-b765a4ddea86)" data-fill-palette-color="accent"></rect></svg><rect width="395.52" height="85.2176702994906" fill="none" stroke="none" visibility="hidden"></rect></g></svg></g></svg>